<svg xmlns="http://www.w3.org/2000/svg">
    <symbol viewBox="0 0 30 30" class="icon icon-cart" id="icon-cart">
      <g>
        <g>
          <path d="M20,6V5c0-2.761-2.239-5-5-5s-5,2.239-5,5v1H4v24h22V6H20z M12,5c0-1.657,1.343-3,3-3s3,1.343,3,3v1h-6V5z M24,28H6V8h4v3    h2V8h6v3h2V8h4V28z"></path>
        </g>
      </g>
    </symbol>
	<symbol viewBox="0 0 1024 1024" class="icon icon-heart" id="icon-heart">
	    <path class="path1" d="M486.4 972.8c-4.283 0-8.566-1.074-12.434-3.222-4.808-2.67-119.088-66.624-235.122-171.376-68.643-61.97-123.467-125.363-162.944-188.418-50.365-80.443-75.901-160.715-75.901-238.584 0-148.218 120.582-268.8 268.8-268.8 50.173 0 103.462 18.805 150.051 52.952 27.251 19.973 50.442 44.043 67.549 69.606 17.107-25.565 40.299-49.634 67.55-69.606 46.589-34.147 99.878-52.952 150.050-52.952 148.218 0 268.8 120.582 268.8 268.8 0 77.869-25.538 158.141-75.901 238.584-39.478 63.054-94.301 126.446-162.944 188.418-116.034 104.754-230.314 168.706-235.122 171.376-3.867 2.149-8.15 3.222-12.434 3.222zM268.8 153.6c-119.986 0-217.6 97.614-217.6 217.6 0 155.624 120.302 297.077 221.224 388.338 90.131 81.504 181.44 138.658 213.976 158.042 32.536-19.384 123.845-76.538 213.976-158.042 100.922-91.261 221.224-232.714 221.224-388.338 0-119.986-97.616-217.6-217.6-217.6-87.187 0-171.856 71.725-193.314 136.096-3.485 10.453-13.267 17.504-24.286 17.504s-20.802-7.051-24.286-17.504c-21.456-64.371-106.125-136.096-193.314-136.096z"></path>
	</symbol>
    <symbol viewBox="0 0 576 512" class="icon icon-edit" id="icon-edit">
        <path d="M402.3 344.9l32-32c5-5 13.7-1.5 13.7 5.7V464c0 26.5-21.5 48-48 48H48c-26.5 0-48-21.5-48-48V112c0-26.5 21.5-48 48-48h273.5c7.1 0 10.7 8.6 5.7 13.7l-32 32c-1.5 1.5-3.5 2.3-5.7 2.3H48v352h352V350.5c0-2.1.8-4.1 2.3-5.6zm156.6-201.8L296.3 405.7l-90.4 10c-26.2 2.9-48.5-19.2-45.6-45.6l10-90.4L432.9 17.1c22.9-22.9 59.9-22.9 82.7 0l43.2 43.2c22.9 22.9 22.9 60 .1 82.8zM460.1 174L402 115.9 216.2 301.8l-7.3 65.3 65.3-7.3L460.1 174zm64.8-79.7l-43.2-43.2c-4.1-4.1-10.8-4.1-14.8 0L436 82l58.1 58.1 30.9-30.9c4-4.2 4-10.8-.1-14.9z"></path></symbol>
    <symbol viewBox="0 0 341.333 341.333" class="icon icon-tree" id="icon-tree" style="enable-background:new 0 0 341.333 341.333;">
        <g><g><g>
        <rect x="128" y="128" width="85.333" height="85.333"></rect>
        <rect x="0" y="0" width="85.333" height="85.333"></rect>
        <rect x="128" y="256" width="85.333" height="85.333"></rect>
        <rect x="0" y="128" width="85.333" height="85.333"></rect>
        <rect x="0" y="256" width="85.333" height="85.333"></rect>
        <rect x="256" y="0" width="85.333" height="85.333"></rect>
        <rect x="128" y="0" width="85.333" height="85.333"></rect>
        <rect x="256" y="128" width="85.333" height="85.333"></rect>
        <rect x="256" y="256" width="85.333" height="85.333"></rect>
        </g></g>
        </g>
    </symbol>
    <symbol viewBox="0 0 42 42" class="icon icon-plus" id="icon-plus1">
        <polygon points="42,19 23,19 23,0 19,0 19,19 0,19 0,23 19,23 19,42 23,42 23,23 42,23 "/></symbol>
    <symbol viewBox="0 0 1024 1024" class="icon icon-compare" id="icon-compare"><path d="M815.415 818.951c-15.614 0-28.278-12.667-28.278-28.278v-489.739c0-43.452-35.349-78.8-78.8-78.8h-145.669c-15.614 0-28.278-12.667-28.278-28.278s12.667-28.278 28.278-28.278h145.669c74.676 0 135.36 60.684 135.36 135.36v489.739c0 15.614-12.667 28.278-28.278 28.278z"></path><path d="M595.808 309.182c-6.039 0-12.078-2.062-16.938-6.481l-86.606-76.884c-8.395-7.513-13.257-18.265-13.257-29.605s4.861-22.095 13.257-29.605l86.606-77.034c10.458-9.426 26.659-8.395 35.939 2.062s8.395 26.659-2.062 35.939l-77.034 68.49 77.034 68.49c10.458 9.426 11.489 25.481 2.062 35.939-5.008 5.891-11.93 8.69-18.999 8.69z"></path><path d="M447.194 822.045h-145.669c-74.676 0-135.36-60.684-135.36-135.36v-489.885c0-15.614 12.667-28.278 28.278-28.278s28.278 12.667 28.278 28.278v489.739c0 43.452 35.349 78.8 78.8 78.8h145.669c15.614 0 28.278 12.667 28.278 28.278 0 15.76-12.667 28.428-28.278 28.428z"></path><path d="M414.053 904.231c-7.069 0-13.994-2.946-18.999-8.543-9.28-10.458-8.395-26.659 2.062-35.939l77.034-68.49-77.034-68.49c-10.458-9.426-11.489-25.481-2.062-35.939 9.426-10.458 25.481-11.489 35.939-2.062l86.606 76.884c8.395 7.513 13.257 18.265 13.257 29.605s-4.861 22.095-13.257 29.605l-86.606 76.884c-4.861 4.419-11.046 6.481-16.938 6.481z"></path>
    </symbol>
    <symbol viewBox="0 0 384 512" class="icon icon-fire" id="icon-fire">
        <path d="M216 23.86c0-23.8-30.65-32.77-44.15-13.04C48 191.85 224 200 224 288c0 35.63-29.11 64.46-64.85 63.99-35.17-.45-63.15-29.77-63.15-64.94v-85.51c0-21.7-26.47-32.23-41.43-16.5C27.8 213.16 0 261.33 0 320c0 105.87 86.13 192 192 192s192-86.13 192-192c0-170.29-168-193-168-296.14z"></path>
    </symbol>
    <symbol viewBox="0 0 1024 1024" class="icon icon-user" id="icon-user">
        <path class="path1" d="M486.4 563.2c-155.275 0-281.6-126.325-281.6-281.6s126.325-281.6 281.6-281.6 281.6 126.325 281.6 281.6-126.325 281.6-281.6 281.6zM486.4 51.2c-127.043 0-230.4 103.357-230.4 230.4s103.357 230.4 230.4 230.4c127.042 0 230.4-103.357 230.4-230.4s-103.358-230.4-230.4-230.4z"></path>
        <path class="path2" d="M896 1024h-819.2c-42.347 0-76.8-34.451-76.8-76.8 0-3.485 0.712-86.285 62.72-168.96 36.094-48.126 85.514-86.36 146.883-113.634 74.957-33.314 168.085-50.206 276.797-50.206 108.71 0 201.838 16.893 276.797 50.206 61.37 27.275 110.789 65.507 146.883 113.634 62.008 82.675 62.72 165.475 62.72 168.96 0 42.349-34.451 76.8-76.8 76.8zM486.4 665.6c-178.52 0-310.267 48.789-381 141.093-53.011 69.174-54.195 139.904-54.2 140.61 0 14.013 11.485 25.498 25.6 25.498h819.2c14.115 0 25.6-11.485 25.6-25.6-0.006-0.603-1.189-71.333-54.198-140.507-70.734-92.304-202.483-141.093-381.002-141.093z"></path>
    </symbol>
     <symbol viewBox="0 0 14 14" class="icon icon-error" id="icon-error">
        <g fill="none" fill-rule="evenodd"><path d="M7 0a7 7 0 0 1 7 7 7 7 0 1 1-7-7z"/><path class="icon-error__symbol" d="M6.328 8.396l-.252-5.4h1.836l-.24 5.4H6.328zM6.04 10.16c0-.528.432-.972.96-.972s.972.444.972.972c0 .516-.444.96-.972.96a.97.97 0 0 1-.96-.96z" fill-rule="nonzero"/></g>
    </symbol>
    <symbol viewBox="0 0 448 448" class="icon icon-plus" id="icon-plus"><path d="m272 184c-4.417969 0-8-3.582031-8-8v-176h-80v176c0 4.417969-3.582031 8-8 8h-176v80h176c4.417969 0 8 3.582031 8 8v176h80v-176c0-4.417969 3.582031-8 8-8h176v-80zm0 0"/></symbol>
    <symbol viewBox="0 0 512 512" class="icon icon-search" id="icon-search">
        <path d="M495,466.2L377.2,348.4c29.2-35.6,46.8-81.2,46.8-130.9C424,103.5,331.5,11,217.5,11C103.4,11,11,103.5,11,217.5   S103.4,424,217.5,424c49.7,0,95.2-17.5,130.8-46.7L466.1,495c8,8,20.9,8,28.9,0C503,487.1,503,474.1,495,466.2z M217.5,382.9   C126.2,382.9,52,308.7,52,217.5S126.2,52,217.5,52C308.7,52,383,126.3,383,217.5S308.7,382.9,217.5,382.9z"></path>
    </symbol>
    <symbol x="0px" y="0px" viewBox="0 0 612 612" class="icon icon-close" id="icon-close">
        <g><g><g><polygon points="612,36.004 576.521,0.603 306,270.608 35.478,0.603 0,36.004 270.522,306.011 0,575.997 35.478,611.397 306,341.411 576.521,611.397 612,575.997 341.459,306.011 "/>
        </g></g></g><g></g><g></g><g></g><g></g><g></g><g></g><g></g><g></g><g></g><g></g><g></g><g></g><g></g><g></g><g></g>
    </symbol>
    <symbol x="0px" y="0px" viewBox="0 0 482.6 482.6" class="icon icon-phone" id="icon-phone">
        <g><path d="M98.339,320.8c47.6,56.9,104.9,101.7,170.3,133.4c24.9,11.8,58.2,25.8,95.3,28.2c2.3,0.1,4.5,0.2,6.8,0.2
                c24.9,0,44.9-8.6,61.2-26.3c0.1-0.1,0.3-0.3,0.4-0.5c5.8-7,12.4-13.3,19.3-20c4.7-4.5,9.5-9.2,14.1-14
                c21.3-22.2,21.3-50.4-0.2-71.9l-60.1-60.1c-10.2-10.6-22.4-16.2-35.2-16.2c-12.8,0-25.1,5.6-35.6,16.1l-35.8,35.8
                c-3.3-1.9-6.7-3.6-9.9-5.2c-4-2-7.7-3.9-11-6c-32.6-20.7-62.2-47.7-90.5-82.4c-14.3-18.1-23.9-33.3-30.6-48.8
                c9.4-8.5,18.2-17.4,26.7-26.1c3-3.1,6.1-6.2,9.2-9.3c10.8-10.8,16.6-23.3,16.6-36s-5.7-25.2-16.6-36l-29.8-29.8
                c-3.5-3.5-6.8-6.9-10.2-10.4c-6.6-6.8-13.5-13.8-20.3-20.1c-10.3-10.1-22.4-15.4-35.2-15.4c-12.7,0-24.9,5.3-35.6,15.5l-37.4,37.4
                c-13.6,13.6-21.3,30.1-22.9,49.2c-1.9,23.9,2.5,49.3,13.9,80C32.739,229.6,59.139,273.7,98.339,320.8z M25.739,104.2
                c1.2-13.3,6.3-24.4,15.9-34l37.2-37.2c5.8-5.6,12.2-8.5,18.4-8.5c6.1,0,12.3,2.9,18,8.7c6.7,6.2,13,12.7,19.8,19.6
                c3.4,3.5,6.9,7,10.4,10.6l29.8,29.8c6.2,6.2,9.4,12.5,9.4,18.7s-3.2,12.5-9.4,18.7c-3.1,3.1-6.2,6.3-9.3,9.4
                c-9.3,9.4-18,18.3-27.6,26.8c-0.2,0.2-0.3,0.3-0.5,0.5c-8.3,8.3-7,16.2-5,22.2c0.1,0.3,0.2,0.5,0.3,0.8
                c7.7,18.5,18.4,36.1,35.1,57.1c30,37,61.6,65.7,96.4,87.8c4.3,2.8,8.9,5,13.2,7.2c4,2,7.7,3.9,11,6c0.4,0.2,0.7,0.4,1.1,0.6
                c3.3,1.7,6.5,2.5,9.7,2.5c8,0,13.2-5.1,14.9-6.8l37.4-37.4c5.8-5.8,12.1-8.9,18.3-8.9c7.6,0,13.8,4.7,17.7,8.9l60.3,60.2
                c12,12,11.9,25-0.3,37.7c-4.2,4.5-8.6,8.8-13.3,13.3c-7,6.8-14.3,13.8-20.9,21.7c-11.5,12.4-25.2,18.2-42.9,18.2
                c-1.7,0-3.5-0.1-5.2-0.2c-32.8-2.1-63.3-14.9-86.2-25.8c-62.2-30.1-116.8-72.8-162.1-127c-37.3-44.9-62.4-86.7-79-131.5
                C28.039,146.4,24.139,124.3,25.739,104.2z"/>
        </g><g></g><g></g><g></g><g></g><g></g><g></g><g></g><g></g><g></g><g></g><g></g><g></g><g></g><g></g><g></g>
    </symbol>
    <symbol x="0px" y="0px" viewBox="0 0 512 512" class="icon icon-email" id="icon-email">
        <g>
            <g>
                <g>
                    <path d="M486.4,59.733H25.6c-14.138,0-25.6,11.461-25.6,25.6v341.333c0,14.138,11.461,25.6,25.6,25.6h460.8
                        c14.138,0,25.6-11.461,25.6-25.6V85.333C512,71.195,500.539,59.733,486.4,59.733z M494.933,426.667
                        c0,4.713-3.82,8.533-8.533,8.533H25.6c-4.713,0-8.533-3.82-8.533-8.533V85.333c0-4.713,3.82-8.533,8.533-8.533h460.8
                        c4.713,0,8.533,3.82,8.533,8.533V426.667z"/>
                    <path d="M470.076,93.898c-2.255-0.197-4.496,0.51-6.229,1.966L266.982,261.239c-6.349,5.337-15.616,5.337-21.965,0L48.154,95.863
                        c-2.335-1.96-5.539-2.526-8.404-1.484c-2.865,1.042-4.957,3.534-5.487,6.537s0.582,6.06,2.917,8.02l196.864,165.367
                        c12.688,10.683,31.224,10.683,43.913,0L474.82,108.937c1.734-1.455,2.818-3.539,3.015-5.794c0.197-2.255-0.51-4.496-1.966-6.229
                        C474.415,95.179,472.331,94.095,470.076,93.898z"/>
                    <path d="M164.124,273.13c-3.021-0.674-6.169,0.34-8.229,2.65l-119.467,128c-2.162,2.214-2.956,5.426-2.074,8.392
                        c0.882,2.967,3.301,5.223,6.321,5.897c3.021,0.674,6.169-0.34,8.229-2.65l119.467-128c2.162-2.214,2.956-5.426,2.074-8.392
                        C169.563,276.061,167.145,273.804,164.124,273.13z"/>
                    <path d="M356.105,275.78c-2.059-2.31-5.208-3.324-8.229-2.65c-3.021,0.674-5.439,2.931-6.321,5.897
                        c-0.882,2.967-0.088,6.178,2.074,8.392l119.467,128c3.24,3.318,8.536,3.442,11.927,0.278c3.391-3.164,3.635-8.456,0.549-11.918
                        L356.105,275.78z"/>
                </g>
            </g></g><g></g><g></g><g></g><g></g><g></g><g></g><g></g><g></g><g></g><g></g><g></g><g></g><g></g><g></g><g></g>
    </symbol>
	<symbol viewBox="0 0 370.814 370.814" class="icon icon-chevron-left" id="icon-chevron-left">
		<g><g><polygon points="292.92,24.848 268.781,0 77.895,185.401 268.781,370.814 292.92,345.961 127.638,185.401"/></g></g><g></g><g></g><g></g><g></g><g></g><g></g><g></g><g></g><g></g><g></g><g></g><g></g><g></g><g></g><g></g>
	</symbol>
    <symbol viewBox="0 0 478.448 478.448" class="icon icon-chevron-right" id="icon-chevron-right">
        <g><g><polygon points="131.659,0 100.494,32.035 313.804,239.232 100.494,446.373 131.65,478.448 377.954,239.232"/></g></g><g></g><g></g><g></g><g></g><g></g><g></g><g></g><g></g><g></g><g></g><g></g><g></g><g></g><g></g><g></g>
    </symbol>
    <symbol viewBox="0 0 256 256" class="icon icon-chevron-right1" id="icon-chevron-right1">
    <g>
        <g>
            <polygon points="79.093,0 48.907,30.187 146.72,128 48.907,225.813 79.093,256 207.093,128        "/>
        </g>
    </g>
    <g>
    </g>
    <g>
    </g>
    <g>
    </g>
    <g>
    </g>
    <g>
    </g>
    <g>
    </g>
    <g>
    </g>
    <g>
    </g>
    <g>
    </g>
    <g>
    </g>
    <g>
    </g>
    <g>
    </g>
    <g>
    </g>
    <g>
    </g>
    <g>
    </g>
    </symbol>
    <symbol viewBox="0 0 498.98 284.49" class="icon icon-chevron-down" id="icon-chevron-down">
        <defs></defs><path class="cls-1" d="M80.93 271.76A35 35 0 0 1 140.68 247l189.74 189.75L520.16 247a35 35 0 1 1 49.5 49.5L355.17 511a35 35 0 0 1-49.5 0L91.18 296.5a34.89 34.89 0 0 1-10.25-24.74z" transform="translate(-80.93 -236.76)"/>
    </symbol>
    <symbol viewBox="0 0 498.98 284.49" class="icon icon-chevron-up" id="icon-chevron-up">
        <defs></defs><path class="cls-1" d="M579.91 486.24A35 35 0 0 1 520.16 511L330.42 321.25 140.68 511a35 35 0 1 1-49.5-49.5L305.67 247a35 35 0 0 1 49.5 0l214.49 214.5a34.89 34.89 0 0 1 10.25 24.74z" transform="translate(-80.93 -236.76)"/>
    </symbol>
    <symbol viewBox="0 0 16 16" class="icon icon-refresh" id="icon-refresh">
        <path d="M2.083,9H0.062H0v5l1.481-1.361C2.932,14.673,5.311,16,8,16c4.08,0,7.446-3.054,7.938-7h-2.021 c-0.476,2.838-2.944,5-5.917,5c-2.106,0-3.96-1.086-5.03-2.729L5.441,9H2.083z" />
        <path d="M8,0C3.92,0,0.554,3.054,0.062,7h2.021C2.559,4.162,5.027,2,8,2c2.169,0,4.07,1.151,5.124,2.876 L11,7h2h0.917h2.021H16V2l-1.432,1.432C13.123,1.357,10.72,0,8,0z" />
    </symbol>
    <symbol x="0px" y="0px" viewBox="0 0 96.124 96.123" class="icon icon-facebook" id="icon-facebook">
        <g><path d="M72.089,0.02L59.624,0C45.62,0,36.57,9.285,36.57,23.656v10.907H24.037c-1.083,0-1.96,0.878-1.96,1.961v15.803
            c0,1.083,0.878,1.96,1.96,1.96h12.533v39.876c0,1.083,0.877,1.96,1.96,1.96h16.352c1.083,0,1.96-0.878,1.96-1.96V54.287h14.654
            c1.083,0,1.96-0.877,1.96-1.96l0.006-15.803c0-0.52-0.207-1.018-0.574-1.386c-0.367-0.368-0.867-0.575-1.387-0.575H56.842v-9.246
            c0-4.444,1.059-6.7,6.848-6.7l8.397-0.003c1.082,0,1.959-0.878,1.959-1.96V1.98C74.046,0.899,73.17,0.022,72.089,0.02z"/></g><g></g><g></g><g></g><g></g><g></g><g></g><g></g><g></g><g></g><g></g><g></g><g></g><g></g><g></g><g></g>
    </symbol>
    <symbol x="0px" y="0px" viewBox="0 0 512 512" class="icon icon-twitter" id="icon-twitter">
        <g><g><path d="M512,97.248c-19.04,8.352-39.328,13.888-60.48,16.576c21.76-12.992,38.368-33.408,46.176-58.016
            c-20.288,12.096-42.688,20.64-66.56,25.408C411.872,60.704,384.416,48,354.464,48c-58.112,0-104.896,47.168-104.896,104.992
            c0,8.32,0.704,16.32,2.432,23.936c-87.264-4.256-164.48-46.08-216.352-109.792c-9.056,15.712-14.368,33.696-14.368,53.056
            c0,36.352,18.72,68.576,46.624,87.232c-16.864-0.32-33.408-5.216-47.424-12.928c0,0.32,0,0.736,0,1.152
            c0,51.008,36.384,93.376,84.096,103.136c-8.544,2.336-17.856,3.456-27.52,3.456c-6.72,0-13.504-0.384-19.872-1.792
            c13.6,41.568,52.192,72.128,98.08,73.12c-35.712,27.936-81.056,44.768-130.144,44.768c-8.608,0-16.864-0.384-25.12-1.44
            C46.496,446.88,101.6,464,161.024,464c193.152,0,298.752-160,298.752-298.688c0-4.64-0.16-9.12-0.384-13.568
            C480.224,136.96,497.728,118.496,512,97.248z"/></g></g><g></g><g></g><g></g><g></g><g></g><g></g><g></g><g></g><g></g><g></g><g></g><g></g><g></g><g></g><g></g>
    </symbol>
    <symbol x="0px" y="0px" viewBox="0 0 512 512" class="icon icon-google" id="icon-google">
    <g>
        <g>
            <polygon points="448,224 448,160 416,160 416,224 352,224 352,256 416,256 416,320 448,320 448,256 512,256 512,224        "/>
        </g>
    </g>
    <g>
        <g>
            <path d="M160,224v64h90.528c-13.216,37.248-48.8,64-90.528,64c-52.928,0-96-43.072-96-96c0-52.928,43.072-96,96-96
                c22.944,0,45.024,8.224,62.176,23.168l42.048-48.256C235.424,109.824,198.432,96,160,96C71.776,96,0,167.776,0,256
                s71.776,160,160,160s160-71.776,160-160v-32H160z"/>
        </g>
    </g>
    <g>
    </g>
    <g>
    </g>
    <g>
    </g>
    <g>
    </g>
    <g>
    </g>
    <g>
    </g>
    <g>
    </g>
    <g>
    </g>
    <g>
    </g>
    <g>
    </g>
    <g>
    </g>
    <g>
    </g>
    <g>
    </g>
    <g>
    </g>
    <g>
    </g>
    </symbol>
    <symbol x="0px" y="0px" viewBox="0 0 510 510" class="icon icon-instagram" id="icon-instagram">
        <g><g id="post-instagram">
            <path d="M459,0H51C22.95,0,0,22.95,0,51v408c0,28.05,22.95,51,51,51h408c28.05,0,51-22.95,51-51V51C510,22.95,487.05,0,459,0z
                 M255,153c56.1,0,102,45.9,102,102c0,56.1-45.9,102-102,102c-56.1,0-102-45.9-102-102C153,198.9,198.9,153,255,153z M63.75,459
                C56.1,459,51,453.9,51,446.25V229.5h53.55C102,237.15,102,247.35,102,255c0,84.15,68.85,153,153,153c84.15,0,153-68.85,153-153
                c0-7.65,0-17.85-2.55-25.5H459v216.75c0,7.65-5.1,12.75-12.75,12.75H63.75z M459,114.75c0,7.65-5.1,12.75-12.75,12.75h-51
                c-7.65,0-12.75-5.1-12.75-12.75v-51c0-7.65,5.1-12.75,12.75-12.75h51C453.9,51,459,56.1,459,63.75V114.75z"/>
        </g></g><g></g><g></g><g></g><g></g><g></g><g></g><g></g><g></g><g></g><g></g><g></g><g></g><g></g><g></g><g></g>
    </symbol>
    <symbol  viewBox="0 0 512 512" class="icon icon-mail" id="icon-mail"><g><path d="m504.5 90h-497c-4.142 0-7.5 3.358-7.5 7.5v317c0 4.142 3.358 7.5 7.5 7.5h497c4.142 0 7.5-3.358 7.5-7.5v-317c0-4.142-3.358-7.5-7.5-7.5zm-8.284 15c-1.822 8.822-6.784 16.863-14.053 22.377l-194.434 147.488c-18.682 14.171-44.775 14.171-63.457 0l-194.435-147.488c-7.269-5.514-12.231-13.556-14.053-22.377zm.784 272.801c-1.79-1.837-3.707-3.563-5.771-5.129l-136.867-103.82c-3.3-2.502-8.004-1.858-10.508 1.443-2.503 3.3-1.857 8.005 1.443 10.508l136.867 103.82c7.269 5.514 12.231 13.556 14.053 22.377h-480.433c1.822-8.822 6.784-16.863 14.053-22.377l136.867-103.82c3.3-2.503 3.946-7.208 1.443-10.508-2.504-3.301-7.209-3.945-10.508-1.443l-136.868 103.82c-2.065 1.566-3.981 3.292-5.771 5.129v-243.602c1.79 1.837 3.707 3.563 5.771 5.129l194.435 147.488c12.009 9.109 26.402 13.665 40.794 13.665s28.785-4.555 40.794-13.665l194.435-147.488c2.065-1.566 3.981-3.292 5.771-5.129z"/></g>
    </symbol>
    <symbol x="0px" y="0px" viewBox="0 0 310.05 310.05" class="icon icon-pinterest" id="icon-pinterest">
        <g id="XMLID_798_">
            <path id="XMLID_799_" d="M245.265,31.772C223.923,11.284,194.388,0,162.101,0c-49.32,0-79.654,20.217-96.416,37.176
                c-20.658,20.9-32.504,48.651-32.504,76.139c0,34.513,14.436,61.003,38.611,70.858c1.623,0.665,3.256,1,4.857,1
                c5.1,0,9.141-3.337,10.541-8.69c0.816-3.071,2.707-10.647,3.529-13.936c1.76-6.495,0.338-9.619-3.5-14.142
                c-6.992-8.273-10.248-18.056-10.248-30.788c0-37.818,28.16-78.011,80.352-78.011c41.412,0,67.137,23.537,67.137,61.425
                c0,23.909-5.15,46.051-14.504,62.35c-6.5,11.325-17.93,24.825-35.477,24.825c-7.588,0-14.404-3.117-18.705-8.551
                c-4.063-5.137-5.402-11.773-3.768-18.689c1.846-7.814,4.363-15.965,6.799-23.845c4.443-14.392,8.643-27.985,8.643-38.83
                c0-18.55-11.404-31.014-28.375-31.014c-21.568,0-38.465,21.906-38.465,49.871c0,13.715,3.645,23.973,5.295,27.912
                c-2.717,11.512-18.865,79.953-21.928,92.859c-1.771,7.534-12.44,67.039,5.219,71.784c19.841,5.331,37.576-52.623,39.381-59.172
                c1.463-5.326,6.582-25.465,9.719-37.845c9.578,9.226,25,15.463,40.006,15.463c28.289,0,53.73-12.73,71.637-35.843
                c17.367-22.418,26.932-53.664,26.932-87.978C276.869,77.502,265.349,51.056,245.265,31.772z"/></g><g></g><g></g><g></g><g></g><g></g><g></g><g></g><g></g><g></g><g></g><g></g><g></g><g></g><g></g><g></g>
    </symbol>
    <symbol x="0px" y="0px" viewBox="0 0 512 512" class="icon icon-tumblr" id="icon-tumblr">
        <g>
            <g>
                <path d="M348.832,428.544c-14.208,0-27.52-3.328-38.528-10.048c-8.8-5.12-16.544-13.824-19.616-22.112
                    c-3.072-8.448-2.752-25.728-2.752-55.296V223.84h128.096v-95.808H287.936V0h-82.528c-3.328,26.336-9.312,48.192-18.112,65.088
                    c-8.416,17.216-20.256,31.776-34.24,44.096c-14.464,12.192-36.864,21.504-57.088,28.128v72.544h68.704V389.28
                    c0,23.52,2.368,41.472,7.424,53.728c4.96,12.352,13.44,23.968,26.4,34.848c12.736,11.008,27.968,19.456,46.176,25.408
                    C262.4,509.12,276.352,512,299.808,512c20.576,0,39.808-1.952,57.408-6.272c17.632-4,36.8-10.08,58.816-20.352v-76.96
                    C390.304,425.216,374.784,428.544,348.832,428.544z"/>
            </g></g><g></g><g></g><g></g><g></g><g></g><g></g><g></g><g></g><g></g><g></g><g></g><g></g><g></g><g></g><g></g>
    </symbol>
    <symbol x="0px" y="0px" viewBox="0 -16 511.99949 511" class="icon icon-snapchat" id="icon-snapchat">
        <path d="m489.4375 332.257812-22.179688-8.597656c-34.984374-13.554687-56.421874-46.179687-59.726562-83.160156h44.46875c16.570312 0 30-13.433594 30-30 0-16.570312-13.429688-30-30-30h-44.9375l1.300781-14.253906c8.0625-88.8125-62.910156-165.746094-152.363281-165.746094-88.996094 0-160.46875 76.476562-152.363281 165.746094l1.300781 14.253906h-44.9375c-16.570312 0-30 13.429688-30 30 0 16.566406 13.429688 30 30 30h45.839844l-2.6875 12.449219c-6.957032 32.257812-27.613282 58.683593-58.359375 70.679687l-20.523438 8.027344c-9.785156 2.199219-17.84375 8.671875-21.738281 17.609375-4.246094 9.753906-3.105469 21.222656 3.089844 30.671875 12.117187 18.53125 39.304687 25.328125 61.949218 29.722656 5.726563 24.988282 18.96875 36.050782 39.375 32.929688 44.707032-6.871094 47.710938-3.367188 63.828126 8.230468 7.207031 5.1875 17.183593 11.648438 32.273437 19.628907 16.007813 6.59375 34.128906 9.917969 52.425781 9.917969 20.054688 0 41.296875-3.984376 59.140625-12.027344 3.558594-2.050782 7.542969-4.730469 11.9375-7.730469 18.515625-12.601563 39.210938-28.316406 71.933594-19.734375 11.9375 3.105469 22.019531 2.109375 29.972656-2.972656 11.453125-7.292969 14.238281-20.097656 15.777344-28.34375 23.726563-4.746094 55.253906-11.527344 65.214844-35.464844 3.675781-8.863281 3.367187-18.574219-.851563-26.632812-4.234375-8.070313-12.042968-13.855469-19.160156-15.203126zm0 0"/>
    </symbol>
    <symbol x="0px" y="0px" viewBox="-21 -117 682.66672 682" class="icon icon-youtube" id="icon-youtube">
        <path d="m626.8125 64.035156c-7.375-27.417968-28.992188-49.03125-56.40625-56.414062-50.082031-13.703125-250.414062-13.703125-250.414062-13.703125s-200.324219 0-250.40625 13.183593c-26.886719 7.375-49.03125 29.519532-56.40625 56.933594-13.179688 50.078125-13.179688 153.933594-13.179688 153.933594s0 104.378906 13.179688 153.933594c7.382812 27.414062 28.992187 49.027344 56.410156 56.410156 50.605468 13.707031 250.410156 13.707031 250.410156 13.707031s200.324219 0 250.40625-13.183593c27.417969-7.378907 49.03125-28.992188 56.414062-56.40625 13.175782-50.082032 13.175782-153.933594 13.175782-153.933594s.527344-104.382813-13.183594-154.460938zm-370.601562 249.878906v-191.890624l166.585937 95.945312zm0 0"/>
    </symbol>
    <symbol x="0px" y="0px" viewBox="0 0 299.999 299.999" class="icon icon-vimeo" id="icon-vimeo">
        <g id="XMLID_518_">
            <path id="XMLID_3_" style="fill-rule:evenodd;clip-rule:evenodd;" d="M298.723,68.78c2.238-12.561,2.188-25.477-5.57-35.245
                c-10.824-13.696-33.863-14.2-49.646-11.783c-12.84,1.963-56.269,21.124-71.047,66.996c26.182-1.99,39.904,1.887,37.385,30.713
                c-1.055,12.061-7.148,25.274-13.947,37.941c-7.857,14.603-22.583,43.277-41.894,22.608c-17.394-18.602-16.088-54.179-20.065-77.871
                c-2.215-13.292-4.557-29.857-8.912-43.529c-3.753-11.757-12.359-25.932-22.884-29.004c-11.304-3.322-25.28,1.863-33.487,6.698
                C42.522,51.661,22.605,73.513,0,91.54l0,0c3.68,7.884,5.687,12.992,12.283,13.949c15.561,2.292,30.391-14.502,40.736,2.971
                c6.294,10.675,8.26,22.381,12.287,33.891c5.387,15.328,9.541,32.02,13.947,49.646c7.452,29.857,16.618,74.47,42.424,85.398
                c13.166,5.591,32.957-1.889,42.977-7.831c27.14-16.061,48.289-39.348,66.391-63.04C272.434,150.453,295.27,86.933,298.723,68.78z"
                /></g><g></g><g></g><g></g><g></g><g></g><g></g><g></g><g></g><g></g><g></g><g></g><g></g><g></g><g></g><g></g>
    </symbol>
    <symbol  viewBox="0 0 200 200" class="icon icon-video" id="icon-video">
        <circle cx="100" cy="100" r="90" fill="none" stroke-width="8"></circle>
        <polygon points="70, 50 70, 145 155, 100"></polygon>
    </symbol>
    <symbol viewBox="0 0 40.124 40.124" class="icon icon-ask" id="icon-ask">
    <g>
        <g>
            <path d="M19.938,12.141c1.856,0,2.971,0.99,2.971,2.66c0,3.033-5.414,3.869-5.414,7.55c0,0.99,0.648,2.072,1.979,2.072
                c2.042,0,1.795-1.516,2.538-2.6c0.989-1.453,5.6-3,5.6-7.023c0-4.361-3.897-6.188-7.858-6.188c-3.773,0-7.24,2.692-7.24,5.725
                c0,1.237,0.929,1.887,2.012,1.887C17.525,16.225,15.979,12.141,19.938,12.141z"/>
            <path d="M22.135,28.973c0-1.393-1.145-2.537-2.537-2.537s-2.537,1.146-2.537,2.537c0,1.393,1.145,2.537,2.537,2.537
                S22.135,30.366,22.135,28.973z"/>
            <path d="M40.124,20.062C40.124,9,31.124,0,20.062,0S0,9,0,20.062s9,20.062,20.062,20.062S40.124,31.125,40.124,20.062z M2,20.062
                C2,10.103,10.103,2,20.062,2c9.959,0,18.062,8.103,18.062,18.062c0,9.959-8.103,18.062-18.062,18.062
                C10.103,38.124,2,30.021,2,20.062z"/>
        </g>
    </g>
    <g>
    </g>
    <g>
    </g>
    <g>
    </g>
    <g>
    </g>
    <g>
    </g>
    <g>
    </g>
    <g>
    </g>
    <g>
    </g>
    <g>
    </g>
    <g>
    </g>
    <g>
    </g>
    <g>
    </g>
    <g>
    </g>
    <g>
    </g>
    <g>
    </g>
    </symbol>

</svg>