<svg xmlns="http://www.w3.org/2000/svg" width="20" height="20" viewBox="0 0 20 20"><defs><style>.a{opacity:0;}.b{fill:#343434;}.c{fill:#fff;}</style></defs><g transform="translate(-1129.441 897.5)"><g class="a"><rect width="20" height="20" transform="translate(1129.441 -897.5)"/></g><g transform="translate(1 -0.732)"><path class="b" d="M1137.673-879.772a7.975,7.975,0,0,1-5.656-2.339,8.008,8.008,0,0,1,0-11.314h0a7.944,7.944,0,0,1,5.656-2.343,7.946,7.946,0,0,1,5.657,2.343,8.01,8.01,0,0,1,0,11.314A7.976,7.976,0,0,1,1137.673-879.772Zm0-14.5a6.459,6.459,0,0,0-4.6,1.9h0a6.507,6.507,0,0,0,0,9.192,6.508,6.508,0,0,0,9.193,0,6.508,6.508,0,0,0,0-9.192A6.459,6.459,0,0,0,1137.673-894.268Z"/><path class="c" d="M1143.507-880.874l1.061-1.061h0l2.3,2.3a.75.75,0,0,1,0,1.061h0a.75.75,0,0,1-1.061,0l-2.3-2.3Z"/><path class="b" d="M1146.336-878.356h0a.737.737,0,0,1-.53-.222l-2.3-2.3,1.06-1.061,2.3,2.3a.737.737,0,0,1,.22.529.745.745,0,0,1-.22.531A.743.743,0,0,1,1146.336-878.356Zm.175-.928h0Z"/></g></g></svg>