<svg xmlns="http://www.w3.org/2000/svg" xmlns:xlink="http://www.w3.org/1999/xlink" width="90" height="90" viewBox="0 0 90 90"><defs><style>.a{fill:#fff;}.b,.c{fill:none;stroke:#343434;stroke-linejoin:round;stroke-width:1.5px;}.b{stroke-linecap:round;}.d{fill:#343434;}.e{filter:url(#a);}</style><filter id="a" x="0" y="0" width="90" height="90" filterUnits="userSpaceOnUse"><feOffset dy="6" input="SourceAlpha"/><feGaussianBlur stdDeviation="6" result="b"/><feFlood flood-opacity="0.102"/><feComposite operator="in" in2="b"/><feComposite in="SourceGraphic"/></filter></defs><g transform="translate(-97 -365)"><g class="e" transform="matrix(1, 0, 0, 1, 97, 365)"><rect class="a" width="54" height="54" rx="27" transform="translate(18 12)"/></g><g transform="translate(-809.79 1237.909)"><path class="b" d="M944.4-828.528a9.19,9.19,0,0,1,1.083-11.691,9.185,9.185,0,0,1,12.99,0,9.187,9.187,0,0,1,0,12.991,9.188,9.188,0,0,1-11.689,1.083"/><path class="b" d="M946.781-826.147l-3.255.872.872-3.254"/><path class="c" d="M949.368-835.594a2.594,2.594,0,0,1,3.2-2.52,2.572,2.572,0,0,1,1.91,1.91,2.6,2.6,0,0,1-1.559,3.016,1.613,1.613,0,0,0-.961,1.517v.993"/><circle class="d" cx="0.75" cy="0.75" r="0.75" transform="translate(951.29 -829.167)"/></g></g></svg>