<svg xmlns="http://www.w3.org/2000/svg" xmlns:xlink="http://www.w3.org/1999/xlink" width="90" height="90" viewBox="0 0 90 90"><defs><style>.a{fill:#fff;}.b,.c,.d,.e{fill:none;stroke:#343434;stroke-width:1.5px;}.b,.c,.e{stroke-linejoin:round;}.c{stroke-linecap:round;}.d{stroke-miterlimit:10;}.e{stroke-linecap:square;}.f{filter:url(#a);}</style><filter id="a" x="0" y="0" width="90" height="90" filterUnits="userSpaceOnUse"><feOffset dy="6" input="SourceAlpha"/><feGaussianBlur stdDeviation="6" result="b"/><feFlood flood-opacity="0.102"/><feComposite operator="in" in2="b"/><feComposite in="SourceGraphic"/></filter></defs><g transform="translate(-188 -365)"><g class="f" transform="matrix(1, 0, 0, 1, 188, 365)"><rect class="a" width="54" height="54" rx="27" transform="translate(18 12)"/></g><g transform="translate(-746.525 1237.987)"><path class="b" d="M979.667-824.518a7.063,7.063,0,0,1-5.784-1.671h0a8.7,8.7,0,0,1-2.958-6.537v-6.893h0a13.757,13.757,0,0,0,7.625-3.369h0a13.757,13.757,0,0,0,7.624,3.369h0v4.552"/><path class="c" d="M975.6-833.5l2.128,2.148,4.231-4.235"/><circle class="d" cx="4.479" cy="4.479" r="4.479" transform="translate(980.167 -833.234)"/><path class="e" d="M984.646-830.7v1.943h1.917"/></g></g></svg>