<svg xmlns="http://www.w3.org/2000/svg" width="30" height="30" viewBox="0 0 30 30"><defs><style>.a{fill:rgba(255,255,255,0);stroke:#343434;stroke-width:1.5px;}.b{opacity:0;}.c{fill:#343434;}.d{stroke:none;}.e{fill:none;}</style></defs><g transform="translate(-24 -684)"><g class="a" transform="translate(24 684)"><circle class="d" cx="15" cy="15" r="15"/><circle class="e" cx="15" cy="15" r="14.25"/></g><g transform="translate(-233 539)"><rect class="b" width="20" height="20" transform="translate(262 150)"/><g transform="translate(618.93 -483.5)"><path class="c" d="M-346.931,643.817a4.663,4.663,0,0,1-4.658-4.659,4.663,4.663,0,0,1,4.658-4.658,4.665,4.665,0,0,1,4.66,4.658A4.664,4.664,0,0,1-346.931,643.817Zm0-7.817a3.162,3.162,0,0,0-3.158,3.158,3.162,3.162,0,0,0,3.158,3.159,3.163,3.163,0,0,0,3.16-3.159A3.162,3.162,0,0,0-346.931,636Z"/><path class="c" d="M-339.742,652.25h-14.377a.75.75,0,0,1-.75-.75v-3.969a2.754,2.754,0,0,1,2.75-2.75h10.377a2.754,2.754,0,0,1,2.75,2.75V651.5A.75.75,0,0,1-339.742,652.25Zm-13.627-1.5h12.877v-3.219a1.252,1.252,0,0,0-1.25-1.25h-10.377a1.251,1.251,0,0,0-1.25,1.25Z"/></g></g></g></svg>