<svg xmlns="http://www.w3.org/2000/svg" width="20" height="20" viewBox="0 0 20 20"><defs><style>.a{fill:rgba(0,0,0,0);}.b{fill:#343434;}</style></defs><g transform="translate(-331 -150)"><rect class="a" width="20" height="20" transform="translate(331 150)"/><g transform="translate(-807.628 1069.776)"><path class="b" d="M1155.33-913.54a.748.748,0,0,0-.75-.71h-11.91a.746.746,0,0,0-.74.71l-.65,11.91a.752.752,0,0,0,.2.55.756.756,0,0,0,.55.24h13.2a.751.751,0,0,0,.54-.24.761.761,0,0,0,.21-.55Zm-12.51,11.2.56-10.41h10.49l.56,10.41Z"/><path class="b" d="M1152.39-916.016v.82a.09.09,0,0,1-.01.05h-1.49v-.87a2.264,2.264,0,0,0-2.26-2.26,2.258,2.258,0,0,0-2.26,2.26v.82a.09.09,0,0,1-.01.05h-1.49v-.87a3.756,3.756,0,0,1,3.76-3.76A3.762,3.762,0,0,1,1152.39-916.016Z"/></g></g></svg>